<?xml version="1.0" encoding="UTF-8" standalone="no"?>
<svg
   xmlns:dc="http://purl.org/dc/elements/1.1/"
   xmlns:cc="http://creativecommons.org/ns#"
   xmlns:rdf="http://www.w3.org/1999/02/22-rdf-syntax-ns#"
   xmlns:svg="http://www.w3.org/2000/svg"
   xmlns="http://www.w3.org/2000/svg"
   width="210mm"
   height="297mm"
   viewBox="0 0 210 297"
   version="1.1"
   id="svg65">
  <defs
     id="defs59" />
  <metadata
     id="metadata62">
    <rdf:RDF>
      <cc:Work
         rdf:about="">
        <dc:format>image/svg+xml</dc:format>
        <dc:type
           rdf:resource="http://purl.org/dc/dcmitype/StillImage" />
        <dc:title></dc:title>
      </cc:Work>
    </rdf:RDF>
  </metadata>
  <path
     style="fill:#5db2da;stroke-width:0.07111561"
     d="m 100.87271,234.01141 c -2.103393,-2.07708 -6.101459,-6.02944 -8.884585,-8.783 -2.783119,-2.75356 -7.465613,-7.38475 -10.405527,-10.29154 -2.939923,-2.90679 -6.652236,-6.57773 -8.249591,-8.15768 -1.597356,-1.57999 -2.904279,-2.91315 -2.904279,-2.96256 0,-0.0723 6.6767,-0.0898 34.348312,-0.0898 19.63356,0 34.36485,0.0267 34.38693,0.0623 0.0361,0.0581 -3.4488,3.53064 -16.31535,16.25735 -2.86145,2.83031 -7.59204,7.51276 -10.51247,10.40546 -2.92045,2.89265 -5.63062,5.54783 -6.0226,5.90035 -0.39199,0.35252 -0.888,0.81976 -1.10226,1.03831 -0.21426,0.21858 -0.41759,0.39744 -0.45187,0.39744 -0.0344,0 -1.78329,-1.69944 -3.88671,-3.77653 z M 11.009905,89.077186 c -0.0523,-0.135679 0.243668,-0.739377 1.269634,-2.589825 4.56315,-8.230082 10.662857,-14.942324 18.315696,-20.154964 5.031251,-3.426987 11.09605,-6.291546 17.086675,-8.070481 1.115283,-0.331193 3.116312,-0.86177 3.753151,-0.995167 2.490013,-0.521555 3.257307,-0.661465 4.846414,-0.883731 1.599517,-0.223711 3.79207,-0.433096 5.315863,-0.507648 1.20512,-0.05893 5.062412,-0.05992 6.301271,-0.0019 3.085209,0.145376 6.574933,0.629696 10.013539,1.389721 0.1372,0.03035 0.425843,0.09391 0.641441,0.141327 1.432189,0.314932 4.817768,1.339052 6.521271,1.972648 1.106296,0.411468 2.928943,1.141658 3.492271,1.399069 0.313598,0.143294 0.714489,0.324497 0.890887,0.402674 1.47828,0.655119 4.092195,2.031811 5.808569,3.059231 3.204166,1.918041 5.919783,3.891721 8.926303,6.487594 0.28402,0.245211 0.54526,0.445834 0.58063,0.445834 0.0352,0 0.31614,-0.228163 0.62397,-0.507025 0.98603,-0.893209 2.94409,-2.493372 4.30141,-3.515224 3.88943,-2.92807 7.58538,-5.10152 12.22298,-7.18786 1.72973,-0.778161 5.45904,-2.113286 7.23396,-2.58981 0.25481,-0.06836 0.54345,-0.151948 0.64144,-0.185657 0.24558,-0.08446 1.49764,-0.403614 2.10246,-0.535917 0.27439,-0.06 0.70737,-0.155213 0.96218,-0.211528 2.53457,-0.560229 5.11707,-0.928875 8.69505,-1.241192 1.39769,-0.122008 5.94939,-0.163384 7.2873,-0.06622 3.17741,0.230703 4.11404,0.328662 6.46795,0.676489 0.69402,0.102566 2.23026,0.39015 3.02899,0.567064 0.23519,0.05209 0.68422,0.150699 0.99781,0.21913 3.16784,0.691318 7.41302,2.103747 10.76186,3.580627 12.15967,5.362537 22.15798,14.656535 28.47232,26.466597 0.78836,1.474547 1.21198,2.335101 1.21198,2.462149 0,0.07587 -16.87719,0.0924 -94.36475,0.0924 -88.188587,0 -94.367721,-0.0081 -94.410525,-0.118813 z"
     id="path68" />
  <path
     id="path135"
     d="m 67.848648,201.28608 c -1.272857,-1.26094 -4.653491,-4.61642 -7.512522,-7.45664 -6.604176,-6.56071 -25.010544,-24.81718 -27.017633,-26.79761 -0.920957,-0.90872 -1.502471,-1.53417 -1.47209,-1.5833 0.07886,-0.12755 145.806137,-0.1159 145.806137,0.0116 0,0.10037 -2.53961,2.63555 -18.22945,18.19766 -5.62015,5.57441 -12.42948,12.33684 -15.13185,15.02763 l -4.91341,4.89234 -34.60744,8.1e-4 -34.607457,8e-4 -2.314285,-2.2926 z M 6.3635363,126.92341 c -0.1007697,-0.32599 -0.4221021,-1.97762 -0.5710952,-2.93532 -0.060843,-0.39138 -0.1409476,-0.90373 -0.1779232,-1.13856 -0.08596,-0.54616 -0.2517842,-2.0071 -0.4078022,-3.59355 -0.1774328,-1.80416 -0.1763621,-7.72514 0.00201,-9.60652 0.7304055,-7.71591 2.2771861,-13.533194 5.3782213,-20.227084 l 0.28845,-0.62265 h 94.376843 c 75.39475,0 94.3992,0.0179 94.48796,0.089 0.35834,0.28687 2.38767,5.56744 3.01497,7.84533 0.46324,1.68213 0.68753,2.53741 0.84905,3.237758 0.10383,0.450086 0.23384,1.010466 0.28891,1.245296 0.47353,2.01834 0.94173,5.30908 1.21162,8.51587 0.14496,1.72238 0.14441,6.53422 -8e-4,8.23671 -0.24091,2.82162 -0.59004,5.32055 -1.03869,7.43448 -0.11712,0.55186 -0.23225,1.09945 -0.25585,1.21687 -0.0237,0.11741 -0.0744,0.2535 -0.11281,0.30242 -0.10297,0.13101 -197.2921668,0.13101 -197.3326547,0 z"
     style="fill:#f19cc2;stroke-width:0.07118409" />
  <path
     id="path159"
     d="m 31.817197,165.2576 c -0.05855,-0.0371 -0.162391,-0.0678 -0.230754,-0.0684 -0.06833,-5.2e-4 -0.248271,-0.12824 -0.399813,-0.28368 -0.15153,-0.15546 -0.311199,-0.28261 -0.354807,-0.28261 -0.04359,0 -0.07928,-0.0477 -0.07928,-0.10601 0,-0.0584 -0.04787,-0.10596 -0.106465,-0.10596 -0.05855,0 -0.106468,-0.0343 -0.106468,-0.0763 0,-0.0419 -0.141205,-0.21679 -0.313791,-0.38859 -0.172587,-0.17181 -0.348255,-0.31236 -0.390376,-0.31236 -0.04209,0 -0.07659,-0.0476 -0.07659,-0.10599 0,-0.0584 -0.04787,-0.10597 -0.106466,-0.10597 -0.05855,0 -0.106467,-0.0343 -0.106467,-0.0763 0,-0.0418 -0.141204,-0.21676 -0.31379,-0.38859 -0.172587,-0.17178 -0.348254,-0.31233 -0.390376,-0.31233 -0.04209,0 -0.07659,-0.0477 -0.07659,-0.10602 0,-0.0584 -0.04788,-0.10596 -0.106468,-0.10596 -0.05855,0 -0.106466,-0.0477 -0.106466,-0.10598 0,-0.0584 -0.04786,-0.10598 -0.106457,-0.10598 -0.05855,0 -0.106466,-0.0343 -0.106466,-0.0761 0,-0.0417 -0.09334,-0.16905 -0.207474,-0.28261 -0.114106,-0.11359 -0.241867,-0.20652 -0.283909,-0.20652 -0.04199,0 -0.07639,-0.0477 -0.07639,-0.106 0,-0.0584 -0.04788,-0.10596 -0.106465,-0.10596 -0.05855,0 -0.106465,-0.0477 -0.106465,-0.10599 0,-0.0583 -0.04787,-0.10597 -0.106468,-0.10597 -0.05855,0 -0.106465,-0.0477 -0.106465,-0.10598 0,-0.0584 -0.04786,-0.10598 -0.106465,-0.10598 -0.05855,0 -0.106456,-0.0342 -0.106456,-0.0761 0,-0.0988 -0.39204,-0.48914 -0.491384,-0.48914 -0.04209,0 -0.07639,-0.0476 -0.07639,-0.10598 0,-0.0584 -0.04789,-0.10597 -0.106467,-0.10597 -0.05855,0 -0.106465,-0.0478 -0.106465,-0.10599 0,-0.0584 -0.04787,-0.10597 -0.106468,-0.10597 -0.05855,0 -0.106466,-0.0342 -0.106466,-0.076 0,-0.0417 -0.09337,-0.16902 -0.207467,-0.2826 -0.114105,-0.11362 -0.241866,-0.20655 -0.283907,-0.20655 -0.04209,0 -0.07639,-0.0478 -0.07639,-0.10596 0,-0.0584 -0.04789,-0.10598 -0.106465,-0.10598 -0.05855,0 -0.106463,-0.0478 -0.106463,-0.10599 0,-0.0584 -0.04787,-0.10596 -0.106468,-0.10596 -0.05855,0 -0.106467,-0.0478 -0.106467,-0.106 0,-0.0584 -0.04787,-0.10598 -0.106466,-0.10598 -0.05855,0 -0.106466,-0.0342 -0.106466,-0.0757 0,-0.0977 -0.180565,-0.27756 -0.278832,-0.27756 -0.04179,0 -0.07599,-0.0476 -0.07599,-0.10597 0,-0.0584 -0.04788,-0.106 -0.106464,-0.106 -0.05855,0 -0.106457,-0.0477 -0.106457,-0.10595 0,-0.0584 -0.04788,-0.106 -0.106465,-0.106 -0.05855,0 -0.106467,-0.0477 -0.106467,-0.10598 0,-0.0584 -0.04788,-0.10599 -0.106467,-0.10599 -0.05855,0 -0.106465,-0.0478 -0.106465,-0.10597 0,-0.0584 -0.04787,-0.10596 -0.106467,-0.10596 -0.05855,0 -0.106465,-0.0424 -0.106465,-0.094 0,-0.0519 -0.0798,-0.1366 -0.177445,-0.18857 -0.09754,-0.0522 -0.177441,-0.13686 -0.177441,-0.18858 0,-0.0519 -0.04787,-0.094 -0.106467,-0.094 -0.05855,0 -0.106457,-0.0477 -0.106457,-0.10597 0,-0.0584 -0.04786,-0.10599 -0.106464,-0.10599 -0.05855,0 -0.106465,-0.0476 -0.106465,-0.10597 0,-0.0584 -0.04789,-0.106 -0.106467,-0.106 -0.05855,0 -0.106467,-0.0476 -0.106467,-0.10596 0,-0.0584 -0.04789,-0.106 -0.106466,-0.106 -0.05855,0 -0.106464,-0.0318 -0.106464,-0.0708 0,-0.0389 -0.04786,-0.0708 -0.106467,-0.0708 -0.05855,0 -0.106466,-0.036 -0.106466,-0.0802 0,-0.0442 -0.0798,-0.15388 -0.177444,-0.2439 -0.09754,-0.0901 -0.177443,-0.19701 -0.177443,-0.23773 0,-0.0407 -0.04787,-0.0742 -0.106465,-0.0742 -0.05855,0 -0.106456,-0.0477 -0.106456,-0.10597 0,-0.0584 -0.0348,-0.10598 -0.07727,-0.10598 -0.09427,0 -0.703441,-0.61421 -0.703441,-0.70924 0,-0.0373 -0.04249,-0.068 -0.09446,-0.068 -0.05197,0 -0.137206,-0.0795 -0.189441,-0.17663 -0.05227,-0.097 -0.121508,-0.17663 -0.153945,-0.17663 -0.0324,0 -0.05895,-0.0476 -0.05895,-0.10599 0,-0.0584 -0.04787,-0.10596 -0.106465,-0.10596 -0.05855,0 -0.106466,-0.0478 -0.106466,-0.106 0,-0.0584 -0.0319,-0.10598 -0.07103,-0.10598 -0.039,0 -0.07103,-0.0477 -0.07103,-0.10598 0,-0.0584 -0.04786,-0.10598 -0.106466,-0.10598 -0.05855,0 -0.106463,-0.0342 -0.106463,-0.0761 0,-0.0988 -0.392042,-0.48915 -0.491376,-0.48915 -0.04199,0 -0.07639,-0.0478 -0.07639,-0.10599 0,-0.0584 -0.04449,-0.10597 -0.09873,-0.10597 -0.05437,0 -0.118816,-0.0795 -0.143314,-0.17664 -0.02453,-0.0971 -0.07589,-0.17662 -0.114153,-0.17662 -0.03829,0 -0.06963,-0.0406 -0.06963,-0.0904 0,-0.10131 -0.247703,-0.33363 -0.355695,-0.33363 -0.03861,0 -0.07013,-0.0476 -0.07013,-0.10599 0,-0.0584 -0.0319,-0.10597 -0.07103,-0.10597 -0.039,0 -0.07103,-0.0477 -0.07103,-0.10599 0,-0.0584 -0.04448,-0.10596 -0.09873,-0.10596 -0.05436,0 -0.118816,-0.0795 -0.143313,-0.17665 -0.02453,-0.0971 -0.0759,-0.17662 -0.114156,-0.17662 -0.03829,0 -0.06962,-0.0318 -0.06962,-0.0708 0,-0.0916 -0.262822,-0.35325 -0.354875,-0.35325 -0.039,0 -0.07103,-0.0342 -0.07103,-0.0757 0,-0.0416 -0.04789,-0.1234 -0.106465,-0.18167 -0.05855,-0.0584 -0.106468,-0.16727 -0.106468,-0.24223 0,-0.0751 -0.04787,-0.13626 -0.106466,-0.13626 -0.05855,0 -0.106466,-0.0322 -0.106466,-0.0714 0,-0.0391 -0.09585,-0.17109 -0.212929,-0.29309 -0.117107,-0.122 -0.212932,-0.26477 -0.212932,-0.31729 0,-0.0527 -0.0319,-0.0955 -0.07102,-0.0955 -0.039,0 -0.07103,-0.0477 -0.07103,-0.10599 0,-0.0584 -0.04029,-0.10597 -0.08967,-0.10597 -0.08517,0 -0.203079,-0.17024 -0.305926,-0.4416 -0.02572,-0.068 -0.09106,-0.12364 -0.145044,-0.12364 -0.05394,0 -0.09814,-0.0476 -0.09814,-0.10598 0,-0.0584 -0.02843,-0.106 -0.06333,-0.106 -0.03482,0 -0.08158,-0.0726 -0.103884,-0.16101 -0.02234,-0.0885 -0.137576,-0.26916 -0.256113,-0.40129 -0.118534,-0.13218 -0.215511,-0.28228 -0.215511,-0.33357 0,-0.0513 -0.03191,-0.0932 -0.07093,-0.0932 -0.039,0 -0.07103,-0.0478 -0.07103,-0.10597 0,-0.0584 -0.04449,-0.10599 -0.09873,-0.10599 -0.05433,0 -0.118815,-0.0795 -0.14331,-0.17663 -0.02453,-0.0971 -0.07588,-0.17663 -0.114158,-0.17663 -0.03829,0 -0.06963,-0.0477 -0.06963,-0.10594 0,-0.0584 -0.02943,-0.10601 -0.06534,-0.10601 -0.0359,0 -0.08638,-0.0954 -0.112101,-0.21197 -0.02573,-0.11657 -0.0762,-0.21196 -0.112101,-0.21196 -0.0359,0 -0.06534,-0.0479 -0.06534,-0.10597 0,-0.0584 -0.04788,-0.10599 -0.106464,-0.10599 -0.06624,0 -0.106468,-0.0667 -0.106468,-0.17663 0,-0.10991 -0.04017,-0.17663 -0.106466,-0.17663 -0.05855,0 -0.106455,-0.0476 -0.106455,-0.10597 0,-0.0583 -0.03132,-0.10598 -0.06963,-0.10598 -0.03829,0 -0.09155,-0.0871 -0.118432,-0.1936 -0.02685,-0.10649 -0.09136,-0.23593 -0.143312,-0.28767 -0.05197,-0.0519 -0.09446,-0.13948 -0.09446,-0.19499 0,-0.0556 -0.03192,-0.10093 -0.07103,-0.10093 -0.039,0 -0.07103,-0.0477 -0.07103,-0.10598 0,-0.0584 -0.02884,-0.10599 -0.06401,-0.10599 -0.03521,0 -0.09743,-0.0954 -0.138267,-0.21195 -0.04081,-0.11658 -0.107822,-0.21196 -0.148896,-0.21196 -0.0411,0 -0.0747,-0.0725 -0.0747,-0.16094 0,-0.0885 -0.06383,-0.21538 -0.141952,-0.2819 -0.07811,-0.0665 -0.141957,-0.16901 -0.141957,-0.22766 0,-0.0588 -0.02843,-0.10669 -0.06324,-0.10669 -0.03482,0 -0.08329,-0.0795 -0.107825,-0.17662 -0.02453,-0.0971 -0.07588,-0.17663 -0.114152,-0.17663 -0.03829,0 -0.06963,-0.0635 -0.06963,-0.14134 0,-0.0777 -0.02853,-0.14129 -0.06325,-0.14129 -0.03482,0 -0.08329,-0.0795 -0.107812,-0.17663 -0.02453,-0.0971 -0.07589,-0.17663 -0.114166,-0.17663 -0.03829,0 -0.06962,-0.0805 -0.06962,-0.17886 0,-0.0983 -0.04788,-0.19716 -0.106464,-0.21951 -0.05855,-0.0222 -0.106467,-0.11776 -0.106467,-0.21196 0,-0.0942 -0.04787,-0.18958 -0.106466,-0.21195 -0.05855,-0.0222 -0.106467,-0.11676 -0.106467,-0.20974 0,-0.1032 -0.0415,-0.16909 -0.106465,-0.16909 -0.06624,0 -0.106466,-0.0667 -0.106466,-0.17662 0,-0.10991 -0.04019,-0.17665 -0.106455,-0.17665 -0.07103,0 -0.106478,-0.0708 -0.106478,-0.21193 0,-0.11659 -0.02943,-0.21198 -0.06534,-0.21198 -0.0359,0 -0.08638,-0.0954 -0.112101,-0.21194 -0.02573,-0.1166 -0.07359,-0.21197 -0.106465,-0.21197 -0.03282,0 -0.08079,-0.0954 -0.106468,-0.21197 -0.02573,-0.11657 -0.0762,-0.21195 -0.1121,-0.21195 -0.0359,0 -0.06534,-0.0805 -0.06534,-0.17886 0,-0.0983 -0.04788,-0.19716 -0.106467,-0.21952 -0.05855,-0.0222 -0.106465,-0.11775 -0.106465,-0.21196 0,-0.0942 -0.04788,-0.18959 -0.106467,-0.21196 -0.06064,-0.023 -0.106467,-0.12854 -0.106467,-0.24506 0,-0.13459 -0.036395,-0.20441 -0.1064645,-0.20441 -0.074302,0 -0.1064557,-0.0747 -0.1064557,-0.24729 0,-0.136 -0.027837,-0.24726 -0.061927,-0.24726 -0.03399,0 -0.08229,-0.1272 -0.1073027,-0.28262 -0.024952,-0.15544 -0.074419,-0.28264 -0.1098988,-0.28264 -0.035509,0 -0.08558,-0.0954 -0.1112637,-0.21195 -0.025734,-0.11657 -0.076204,-0.21197 -0.1121114,-0.21197 -0.035907,0 -0.065331,-0.0954 -0.065331,-0.21195 0,-0.14131 -0.035509,-0.21195 -0.1064659,-0.21195 -0.074406,0 -0.106466,-0.0747 -0.106466,-0.24728 0,-0.17273 -0.032118,-0.24729 -0.1064661,-0.24729 -0.078898,0 -0.106466,-0.0824 -0.106466,-0.31794 0,-0.23552 -0.027629,-0.31794 -0.1064659,-0.31794 -0.058549,0 -0.1064662,-0.0624 -0.1064662,-0.13851 0,-0.20311 -0.2327011,-0.92129 -0.2985114,-0.92129 -0.031019,0 -0.056354,-0.11227 -0.056354,-0.24952 0,-0.15659 -0.039599,-0.26463 -0.106466,-0.29014 -0.069621,-0.0264 -0.1064661,-0.13668 -0.1064661,-0.31797 0,-0.18128 -0.036905,-0.29135 -0.106466,-0.31793 -0.069421,-0.0263 -0.1064659,-0.13641 -0.1064659,-0.3157 0,-0.1974 -0.030023,-0.27507 -0.106466,-0.27507 -0.076301,0 -0.1064661,-0.0775 -0.1064661,-0.27396 0,-0.15068 -0.044687,-0.31087 -0.099244,-0.35597 -0.054559,-0.0452 -0.1157821,-0.20003 -0.1359501,-0.34425 -0.064834,-0.46351 -0.1897913,-0.95986 -0.251802,-1.00022 -0.033115,-0.0214 -0.0777,-0.19715 -0.099046,-0.39016 -0.021345,-0.19303 -0.07381,-0.36258 -0.1167293,-0.37681 -0.042889,-0.0142 -0.077901,-0.16472 -0.077901,-0.33441 0,-0.19555 -0.037604,-0.32948 -0.1025561,-0.36568 -0.075804,-0.0423 -0.1152636,-0.2777 -0.1514002,-0.90435 -0.026831,-0.46595 -0.077401,-0.88322 -0.1121915,-0.92725 -0.040597,-0.0513 -0.022341,-0.0957 0.050769,-0.12366 0.062738,-0.0238 44.4659376,-0.0436 98.6737606,-0.0436 76.6575,0 98.54073,0.0188 98.47449,0.0847 -0.0482,0.048 -0.0852,0.2779 -0.0852,0.52988 0,0.24965 -0.031,0.44514 -0.0712,0.44514 -0.0391,0 -0.0711,0.17145 -0.0711,0.38102 0,0.27351 -0.03,0.3925 -0.10646,0.42169 -0.0709,0.0268 -0.10648,0.13806 -0.10648,0.33057 0,0.16346 -0.0464,0.33606 -0.10646,0.39584 -0.0587,0.0584 -0.10646,0.22825 -0.10646,0.37766 0,0.14944 -0.0351,0.28333 -0.0781,0.29754 -0.0429,0.0142 -0.095,0.17657 -0.1159,0.36079 -0.0208,0.18419 -0.0656,0.35194 -0.0995,0.37277 -0.034,0.0208 -0.0616,0.16417 -0.0616,0.31854 0,0.1843 -0.0366,0.29463 -0.10646,0.32133 -0.0725,0.0274 -0.10646,0.14033 -0.10646,0.35104 0,0.22879 -0.0281,0.31039 -0.10645,0.31039 -0.075,0 -0.10647,0.0753 -0.10647,0.25232 0,0.13879 -0.048,0.30002 -0.10648,0.35832 -0.0586,0.0584 -0.10646,0.19908 -0.10646,0.31289 0,0.11379 -0.0306,0.20692 -0.0679,0.20692 -0.0375,0 -0.0894,0.11921 -0.11572,0.26495 -0.0262,0.14571 -0.0734,0.29699 -0.10411,0.33615 -0.10025,0.12712 -0.27811,0.7008 -0.2792,0.90027 -8e-4,0.12514 -0.0389,0.19429 -0.10748,0.19429 -0.0702,0 -0.10648,0.0698 -0.10648,0.20442 0,0.11651 -0.0458,0.22189 -0.10647,0.24506 -0.0586,0.0222 -0.10645,0.12341 -0.10645,0.22457 0,0.10113 -0.0479,0.23161 -0.10646,0.28988 -0.0586,0.0584 -0.10647,0.16957 -0.10647,0.24727 0,0.0777 -0.0479,0.18901 -0.10646,0.24729 -0.0586,0.0584 -0.10647,0.18055 -0.10647,0.27169 0,0.0911 -0.0239,0.17628 -0.0533,0.18924 -0.0884,0.0391 -0.30166,0.48464 -0.30166,0.62983 0,0.0747 -0.0316,0.1356 -0.0702,0.1356 -0.0387,0 -0.0906,0.12716 -0.11552,0.28259 -0.0273,0.17045 -0.0841,0.28263 -0.14279,0.28263 -0.061,0 -0.0975,0.0794 -0.0975,0.21196 0,0.14131 -0.0356,0.21196 -0.10648,0.21196 -0.0711,0 -0.10643,0.0708 -0.10643,0.21196 0,0.1413 -0.0354,0.21196 -0.10648,0.21196 -0.0662,0 -0.10645,0.0667 -0.10645,0.17662 0,0.0971 -0.0294,0.17665 -0.0654,0.17665 -0.0359,0 -0.0864,0.0954 -0.11212,0.21195 -0.0256,0.11656 -0.0763,0.21196 -0.11209,0.21196 -0.036,0 -0.0653,0.0954 -0.0653,0.21198 0,0.13394 -0.0363,0.21193 -0.0988,0.21193 -0.0545,0 -0.1188,0.0795 -0.14332,0.17664 -0.0245,0.0971 -0.076,0.17662 -0.11414,0.17662 -0.0385,0 -0.0697,0.0954 -0.0697,0.21197 0,0.1413 -0.0354,0.21195 -0.10646,0.21195 -0.0586,0 -0.10648,0.0598 -0.10648,0.13266 0,0.0731 -0.0478,0.17223 -0.10647,0.22062 -0.0587,0.0485 -0.10644,0.14916 -0.10644,0.22398 0,0.0749 -0.0776,0.20765 -0.17254,0.29519 -0.095,0.0875 -0.19418,0.245 -0.22064,0.3499 -0.0263,0.1049 -0.0767,0.19072 -0.11135,0.19072 -0.035,0 -0.0633,0.0646 -0.0633,0.14351 0,0.0789 -0.0478,0.16186 -0.10647,0.18422 -0.0586,0.0222 -0.10647,0.10085 -0.10647,0.1744 0,0.0737 -0.0312,0.13375 -0.0696,0.13375 -0.0384,0 -0.0898,0.0795 -0.11413,0.17663 -0.0245,0.097 -0.0891,0.17663 -0.14331,0.17663 -0.0581,0 -0.0988,0.073 -0.0988,0.17663 0,0.0971 -0.0247,0.17664 -0.0551,0.17664 -0.0304,0 -0.11812,0.14278 -0.19518,0.31727 -0.0772,0.17449 -0.18006,0.31757 -0.22884,0.31795 -0.0487,2.8e-4 -0.0888,0.0652 -0.0888,0.1442 0,0.0789 -0.0479,0.16182 -0.10647,0.18419 -0.0586,0.0222 -0.10647,0.0849 -0.10647,0.13908 0,0.0542 -0.0294,0.0983 -0.0653,0.0983 -0.036,0 -0.0864,0.0954 -0.11212,0.21195 -0.0257,0.11658 -0.0923,0.21197 -0.1476,0.21197 -0.0555,0 -0.10083,0.0478 -0.10083,0.10598 0,0.0584 -0.0314,0.10597 -0.0697,0.10597 -0.0384,0 -0.0899,0.0795 -0.11417,0.17664 -0.0245,0.0971 -0.0732,0.17662 -0.10782,0.17662 -0.0349,0 -0.0632,0.0476 -0.0632,0.10599 0,0.0584 -0.0478,0.10599 -0.10648,0.10599 -0.0586,0 -0.10646,0.0614 -0.10646,0.13626 0,0.075 -0.0478,0.18393 -0.10646,0.24221 -0.0586,0.0584 -0.10645,0.14007 -0.10645,0.1817 0,0.0416 -0.0478,0.0756 -0.10648,0.0756 -0.0662,0 -0.10644,0.0667 -0.10644,0.17662 0,0.10991 -0.0403,0.17663 -0.10649,0.17663 -0.0586,0 -0.10646,0.0476 -0.10646,0.10598 0,0.0584 -0.032,0.10597 -0.0711,0.10597 -0.0389,0 -0.0713,0.0398 -0.0715,0.0884 0,0.0487 -0.0961,0.18992 -0.21293,0.31411 -0.11693,0.12421 -0.2126,0.25934 -0.2126,0.30028 0,0.041 -0.0479,0.0746 -0.1065,0.0746 -0.0586,0 -0.10646,0.0613 -0.10646,0.13626 0,0.0751 -0.0478,0.18393 -0.10645,0.24223 -0.0586,0.0584 -0.10646,0.14005 -0.10646,0.1817 0,0.0417 -0.0343,0.0757 -0.0761,0.0757 -0.11899,0 -0.26734,0.17701 -0.31853,0.38007 -0.0256,0.10183 -0.0913,0.18517 -0.14546,0.18517 -0.0545,0 -0.0987,0.0477 -0.0987,0.10598 0,0.0584 -0.032,0.10597 -0.0711,0.10597 -0.0391,0 -0.0712,0.0477 -0.0712,0.10597 0,0.0584 -0.0479,0.10598 -0.10646,0.10598 -0.0585,0 -0.10647,0.0476 -0.10647,0.10599 0,0.0584 -0.0313,0.10597 -0.0696,0.10597 -0.0385,0 -0.0898,0.0795 -0.1142,0.17666 -0.0245,0.097 -0.0891,0.17663 -0.14327,0.17663 -0.0545,0 -0.0987,0.0476 -0.0987,0.10597 0,0.0584 -0.048,0.10598 -0.10647,0.10598 -0.0586,0 -0.10647,0.0477 -0.10647,0.10597 0,0.0584 -0.0319,0.10601 -0.0712,0.10601 -0.0389,0 -0.0711,0.0315 -0.0711,0.0698 0,0.0656 -0.13479,0.25067 -0.33709,0.4629 -0.049,0.0512 -0.089,0.12712 -0.089,0.16874 0,0.0416 -0.0479,0.0756 -0.10647,0.0756 -0.0585,0 -0.10645,0.0477 -0.10645,0.10598 0,0.0584 -0.0479,0.10598 -0.10647,0.10598 -0.0586,0 -0.10646,0.0342 -0.10646,0.0762 0,0.0418 -0.0959,0.17149 -0.21291,0.28805 -0.11715,0.11658 -0.21295,0.24284 -0.21295,0.28056 0,0.0376 -0.08,0.14225 -0.17746,0.2323 -0.0977,0.09 -0.17743,0.19978 -0.17743,0.24391 0,0.0441 -0.0344,0.0802 -0.0765,0.0802 -0.0994,0 -0.49138,0.39025 -0.49138,0.48916 0,0.0417 -0.0478,0.0761 -0.10646,0.0761 -0.0586,0 -0.10648,0.0478 -0.10648,0.10598 0,0.0584 -0.032,0.106 -0.0711,0.106 -0.0391,0 -0.0712,0.0477 -0.0712,0.10596 0,0.059 -0.0631,0.10599 -0.14195,0.10599 -0.0782,0 -0.14194,0.0315 -0.14194,0.0699 0,0.0774 -0.14829,0.26741 -0.4436,0.56828 -0.10738,0.10937 -0.19522,0.23308 -0.19522,0.27493 0,0.0416 -0.0309,0.076 -0.0685,0.076 -0.0929,0 -0.49929,0.40079 -0.49929,0.49221 0,0.0402 -0.0479,0.0732 -0.10646,0.0732 -0.0587,0 -0.10646,0.0477 -0.10646,0.106 0,0.0584 -0.0479,0.10597 -0.10647,0.10597 -0.0586,0 -0.10648,0.0477 -0.10648,0.10599 0,0.0584 -0.0479,0.10596 -0.10645,0.10596 -0.0586,0 -0.10648,0.0476 -0.10648,0.106 0,0.0584 -0.0344,0.10597 -0.0764,0.10597 -0.0994,0 -0.4914,0.39026 -0.4914,0.48914 0,0.0418 -0.0479,0.0761 -0.10648,0.0761 -0.0586,0 -0.10645,0.0477 -0.10645,0.106 0,0.0584 -0.0479,0.10597 -0.10645,0.10597 -0.0586,0 -0.10647,0.0478 -0.10647,0.106 0,0.0584 -0.0345,0.10597 -0.0767,0.10597 -0.0997,0 -0.70417,0.60166 -0.70417,0.70094 0,0.0419 -0.0479,0.0762 -0.10644,0.0762 -0.0586,0 -0.10648,0.0477 -0.10648,0.10598 0,0.0584 -0.0312,0.10598 -0.0693,0.10598 -0.0968,0 -0.92452,0.81583 -0.92452,0.91116 0,0.0429 -0.0479,0.078 -0.10648,0.078 -0.0586,0 -0.10644,0.0477 -0.10644,0.10599 0,0.0584 -0.0345,0.10597 -0.0768,0.10597 -0.1,0 -0.91702,0.81339 -0.91702,0.91286 0,0.042 -0.0478,0.0763 -0.10645,0.0763 -0.0587,0 -0.10648,0.0318 -0.10648,0.0708 0,0.0389 -0.0479,0.0708 -0.10646,0.0708 -0.0586,0 -0.10649,0.0477 -0.10649,0.10598 0,0.0584 -0.0479,0.10598 -0.10645,0.10598 -0.0586,0 -0.10647,0.0332 -0.10647,0.0742 0,0.0407 -0.08,0.14767 -0.17743,0.23771 -0.0976,0.09 -0.17746,0.19982 -0.17746,0.24392 0,0.0442 -0.0434,0.0802 -0.0966,0.0802 -0.0532,0 -0.15647,0.0795 -0.22976,0.17662 -0.0734,0.0971 -0.17358,0.17664 -0.22287,0.17664 -0.0491,0 -0.0898,0.0478 -0.0898,0.10597 0,0.0584 -0.0479,0.10598 -0.10646,0.10598 -0.0586,0 -0.10646,0.0476 -0.10646,0.10599 0,0.0584 -0.0478,0.10598 -0.10647,0.10598 -0.0586,0 -0.10648,0.0477 -0.10648,0.10598 0,0.0584 -0.0478,0.10598 -0.10643,0.10598 -0.0586,0 -0.10647,0.034 -0.10647,0.0757 0,0.0977 -0.18059,0.27759 -0.27886,0.27759 -0.0417,0 -0.0761,0.0476 -0.0761,0.10597 0,0.0584 -0.0477,0.10597 -0.10644,0.10597 -0.0586,0 -0.10648,0.0476 -0.10648,0.10598 0,0.0584 -0.0479,0.10599 -0.10647,0.10599 -0.0586,0 -0.10647,0.0477 -0.10647,0.10596 0,0.0584 -0.048,0.106 -0.10647,0.106 -0.0586,0 -0.10645,0.0477 -0.10645,0.10597 0,0.0584 -0.0342,0.10599 -0.0761,0.10599 -0.0983,0 -0.27885,0.17973 -0.27885,0.27756 0,0.0414 -0.0479,0.0756 -0.10647,0.0756 -0.0586,0 -0.10646,0.0476 -0.10646,0.10599 0,0.0584 -0.0479,0.10598 -0.10645,0.10598 -0.0586,0 -0.10647,0.0476 -0.10647,0.10598 0,0.0584 -0.048,0.10598 -0.10646,0.10598 -0.0586,0 -0.10647,0.0476 -0.10647,0.10595 0,0.0584 -0.0309,0.10601 -0.0686,0.10601 -0.0927,0 -0.49928,0.40077 -0.49928,0.49217 0,0.0402 -0.0881,0.0732 -0.19521,0.0733 -0.10732,6e-5 -32.98643,2e-5 -73.06462,-1.6e-4 -47.032792,-2.2e-4 -72.877856,0.0238 -72.893156,0.0682 -0.01516,0.0437 -0.06235,0.0442 -0.130185,9.9e-4 z"
     style="fill:#fefefe;stroke-width:0.07081482" />
  <path
     id="path172"
     d="m 57.576348,178.47726 v -11.74131 h 3.915531 3.915532 l 0.0624,0.16413 c 0.03432,0.0903 0.226103,1.31511 0.426182,2.72185 0.73279,5.15223 1.084987,7.46916 1.144691,7.53037 0.08396,0.0861 0.06921,0.18727 0.7807,-5.35616 0.348563,-2.71575 0.66158,-4.96556 0.695594,-4.99957 0.03402,-0.034 1.821168,-0.0536 3.971446,-0.0434 l 3.909599,0.0184 0.01799,11.72352 0.01799,11.72353 h -2.657072 -2.657076 l -0.0472,-3.42735 c -0.02595,-1.88504 -0.04817,-5.23932 -0.04936,-7.45395 -0.0013,-2.49947 -0.02711,-3.98396 -0.06794,-3.91415 -0.03618,0.0619 -0.483864,3.28004 -0.994857,7.15153 -0.510995,3.87148 -0.948449,7.17567 -0.972125,7.34264 l -0.04304,0.30357 -1.892867,-0.0189 -1.89287,-0.0189 -1.014869,-7.11595 c -0.558179,-3.91377 -1.038926,-7.196 -1.068327,-7.29384 -0.08964,-0.2983 -0.143947,2.79917 -0.153778,8.7704 l -0.0093,5.67497 h -2.668481 -2.668479 z m 21.418999,11.62103 c 0,-0.21702 3.066649,-23.2446 3.10349,-23.30421 0.05904,-0.0955 8.691288,-0.0732 8.750519,0.0227 0.04257,0.0689 3.508915,23.06254 3.514463,23.31287 0.0016,0.0698 -0.663503,0.0889 -3.093466,0.0889 -1.702489,0 -3.098633,-0.008 -3.102544,-0.0178 -0.0039,-0.01 -0.07938,-0.91804 -0.167711,-2.01836 -0.08833,-1.10031 -0.18309,-2.03695 -0.210571,-2.08141 -0.05676,-0.0918 -2.074104,-0.11756 -2.129978,-0.0272 -0.01826,0.0295 -0.10049,0.83809 -0.182748,1.79678 -0.08226,0.95869 -0.167238,1.87917 -0.188848,2.0455 l -0.03929,0.30243 h -3.126655 c -2.88829,0 -3.126657,-0.009 -3.126657,-0.12028 z m 8.637597,-8.26314 c 0.01963,-0.0318 -0.04094,-0.75077 -0.134614,-1.59777 -0.09367,-0.847 -0.285059,-2.83038 -0.425297,-4.40749 -0.287905,-3.23771 -0.308297,-3.40738 -0.391397,-3.25678 -0.05154,0.0934 -0.460317,3.09378 -0.746226,5.4772 -0.210307,1.75319 -0.394142,3.71266 -0.354357,3.77704 0.04989,0.0807 2.002241,0.0881 2.051891,0.008 z m 10.130973,-0.99184 -0.01805,-9.37525 -1.74001,-0.0191 c -1.283137,-0.0141 -1.754629,-0.0421 -1.795687,-0.10674 -0.07335,-0.11548 -0.07237,-4.40208 0.0011,-4.5177 0.04496,-0.0708 1.426425,-0.0856 6.67011,-0.0712 l 6.6134,0.0182 v 2.31268 2.31268 l -1.77899,0.0356 -1.77898,0.0356 -0.018,9.37526 -0.0181,9.37526 h -3.05933 -3.059336 z m 15.156963,0 -0.0181,-9.37525 -1.74001,-0.0191 c -1.28314,-0.0141 -1.75463,-0.0421 -1.79568,-0.10674 -0.0734,-0.11548 -0.0724,-4.40208 10e-4,-4.5177 0.045,-0.0708 1.42642,-0.0856 6.6701,-0.0712 l 6.6134,0.0182 v 2.31268 2.31268 l -1.77898,0.0356 -1.77899,0.0356 -0.0181,9.37526 -0.0181,9.37526 h -3.05933 -3.05933 z m 12.63033,-2.34826 0.018,-11.72352 h 5.05232 5.05233 v 2.31268 2.31269 l -1.99247,0.0356 -1.99246,0.0356 v 2.17036 2.17036 l 1.85014,0.0356 1.85015,0.0356 0.0188,2.22255 0.0188,2.22255 -1.86895,0.019 -1.86894,0.019 v 2.56174 2.56174 l 2.20594,0.0356 2.20594,0.0356 0.0188,2.33047 0.0187,2.33047 h -5.30256 -5.30256 z m 13.80493,0 0.018,-11.72352 2.9887,-0.0217 c 4.40228,-0.0319 6.67502,0.11407 7.69973,0.4946 0.78602,0.2919 1.56903,0.93465 2.0271,1.664 0.66206,1.05414 0.96764,2.95461 0.83545,5.19574 -0.14988,2.54109 -0.70872,3.36236 -2.54615,3.74188 -0.2407,0.0497 -0.43764,0.11343 -0.43764,0.14159 0,0.0282 0.16811,0.10575 0.37358,0.17243 1.41711,0.45981 2.35596,1.46174 2.54574,2.71678 0.0401,0.26529 0.0931,2.4757 0.11782,4.91203 l 0.0449,4.42967 h -2.85746 -2.85746 l -8.1e-4,-4.25177 c -8.1e-4,-4.22415 -0.0456,-5.27163 -0.24748,-5.75473 -0.13055,-0.31246 -0.58651,-0.52764 -1.15896,-0.54694 l -0.40754,-0.0137 -0.0182,5.28359 -0.0182,5.28359 h -3.05962 -3.05961 l 0.018,-11.72352 z m 7.30726,-2.70829 c 0.13446,-0.0662 0.30245,-0.20035 0.37331,-0.29819 0.19536,-0.26976 0.29148,-1.2196 0.25824,-2.5518 -0.0255,-1.02036 -0.0508,-1.23119 -0.18316,-1.52486 -0.12561,-0.27866 -0.21278,-0.36695 -0.47823,-0.48437 -0.17944,-0.0794 -0.50688,-0.14974 -0.73216,-0.15734 l -0.40754,-0.0137 -0.0187,2.52579 c -0.0103,1.38918 -0.002,2.57005 0.019,2.62416 0.0498,0.12983 0.82301,0.0507 1.16923,-0.11966 z M 130.83501,157.973 c -1.90846,-0.24325 -3.75675,-1.20995 -4.5598,-2.38488 -0.36814,-0.53862 -0.54952,-1.01226 -0.75107,-1.96125 -0.13559,-0.63843 -0.15617,-0.9667 -0.16187,-2.58158 l -0.006,-1.85015 h 2.77522 2.77521 l 0.0445,1.95689 c 0.0273,1.2004 0.0777,2.06356 0.13039,2.23282 0.11188,0.35956 0.35136,0.59237 0.67106,0.65234 0.6476,0.12149 1.17736,-0.21844 1.36928,-0.87861 0.16965,-0.58356 0.10359,-2.34676 -0.11345,-3.02834 -0.23525,-0.73876 -0.60155,-1.056 -3.43169,-2.97206 -2.74113,-1.85579 -3.17082,-2.24973 -3.75472,-3.44231 -0.58361,-1.19202 -0.75735,-2.23257 -0.68911,-4.12726 0.0685,-1.90197 0.29091,-2.82231 0.89694,-3.71175 0.9423,-1.38296 2.77444,-2.18117 5.23258,-2.27967 1.86164,-0.0746 3.36198,0.20024 4.69795,0.86058 1.40767,0.69578 2.08,1.50811 2.34402,2.83211 0.13766,0.69035 0.2675,2.46521 0.23843,3.25939 l -0.0221,0.60485 h -2.8108 -2.8108 l -0.0386,-1.42319 c -0.043,-1.58674 -0.10837,-1.86363 -0.48597,-2.05889 -0.49408,-0.2555 -1.05769,-0.0384 -1.33763,0.51516 -0.29784,0.58902 -0.27583,2.07002 0.0418,2.81097 0.17712,0.41321 0.82691,0.98896 1.74204,1.54356 2.85891,1.73259 4.54308,3.05889 5.22353,4.11357 0.79657,1.23467 1.17512,3.78743 0.93583,6.31078 -0.14595,1.53916 -0.4341,2.35735 -1.07857,3.06249 -1.38532,1.51577 -4.24826,2.30359 -7.06605,1.94443 z m -58.780235,-0.50507 c -0.01872,-0.0492 -0.02579,-5.32501 -0.01573,-11.72402 l 0.01826,-11.63457 h 3.024277 3.024276 l 0.03558,9.35747 0.03558,9.35747 1.814568,0.0356 1.814565,0.0356 v 2.31268 2.31268 l -4.858677,0.0183 c -3.849246,0.0145 -4.865742,-2.7e-4 -4.892693,-0.0712 z m 12.73765,2.7e-4 c -0.01877,-0.0494 -0.0259,-5.32529 -0.01584,-11.7243 l 0.01826,-11.63458 h 3.024277 3.024277 v 11.70574 11.70573 l -3.008423,0.0186 c -2.368764,0.0146 -3.015678,-5.3e-4 -3.042549,-0.0712 z m 12.170269,0.0163 c -0.07536,-0.12194 -3.534931,-23.20324 -3.493884,-23.3102 0.03245,-0.0846 0.536887,-0.1006 3.167651,-0.1006 2.205063,0 3.143381,0.0232 3.177583,0.0785 0.106518,0.17235 1.009036,8.84594 1.346836,12.94366 0.18614,2.258 0.22653,2.60862 0.29284,2.54231 0.0199,-0.0199 0.13031,-1.24853 0.2453,-2.73025 0.30193,-3.89054 1.09566,-12.54499 1.16891,-12.7453 0.0254,-0.0693 0.72956,-0.0889 3.19375,-0.0889 2.46561,0 3.16778,0.0196 3.19105,0.0889 0.0383,0.1143 -3.03448,23.20025 -3.10273,23.31068 -0.0676,0.10938 -9.119808,0.12038 -9.187306,0.0112 z m 14.870206,-0.0167 c -0.0187,-0.0492 -0.0258,-5.32497 -0.0157,-11.72399 l 0.0183,-11.63457 h 5.05232 5.05232 v 2.31268 2.31268 l -1.99246,0.0356 -1.99247,0.0356 v 2.17036 2.17036 l 1.85015,0.0356 1.85014,0.0356 0.0188,2.22255 0.0188,2.22255 -1.86894,0.019 -1.86895,0.019 v 2.56174 2.56174 l 2.20594,0.0356 2.20594,0.0356 v 2.31269 2.31268 l -5.25006,0.0183 c -4.1624,0.0145 -5.25711,-2.7e-4 -5.28407,-0.0712 z m 25.54878,-32.08593 c -1.90846,-0.24326 -3.75675,-1.20995 -4.5598,-2.38488 -0.36814,-0.53862 -0.54952,-1.01226 -0.75107,-1.96125 -0.13559,-0.63843 -0.15617,-0.9667 -0.16187,-2.58158 l -0.006,-1.85015 h 2.77522 2.77522 l 0.0445,1.95689 c 0.0273,1.2004 0.0777,2.06355 0.13038,2.23282 0.11188,0.35955 0.35137,0.59236 0.67106,0.65234 0.6476,0.12149 1.17737,-0.21844 1.36928,-0.87861 0.16965,-0.58357 0.1036,-2.34676 -0.11345,-3.02834 -0.23525,-0.73876 -0.60155,-1.056 -3.43169,-2.97206 -2.74113,-1.85579 -3.17082,-2.24973 -3.75472,-3.44232 -0.58361,-1.19202 -0.75735,-2.23257 -0.6891,-4.12725 0.0685,-1.90197 0.29089,-2.82231 0.89693,-3.71175 0.9423,-1.38296 2.77445,-2.18117 5.23258,-2.27967 1.86164,-0.0746 3.36198,0.20024 4.69795,0.86058 1.40767,0.69578 2.08,1.50811 2.34402,2.8321 0.13766,0.69036 0.2675,2.46522 0.23843,3.2594 l -0.0221,0.60485 h -2.8108 -2.8108 l -0.0386,-1.42319 c -0.043,-1.58675 -0.10838,-1.86363 -0.48598,-2.05889 -0.49408,-0.25551 -1.05769,-0.0384 -1.33763,0.51515 -0.29784,0.58903 -0.27583,2.07003 0.0418,2.81098 0.17712,0.41321 0.82691,0.98896 1.74204,1.54356 2.85891,1.73258 4.54309,3.05889 5.22353,4.11357 0.79657,1.23466 1.17512,3.78742 0.93584,6.31078 -0.14596,1.53916 -0.43411,2.35734 -1.07858,3.06249 -1.38532,1.51577 -4.24826,2.30359 -7.06604,1.94443 z m -69.311471,-0.5048 c -0.01864,-0.0494 -0.04177,-4.26856 -0.05143,-9.37603 l -0.01756,-9.28631 -1.74001,-0.0191 c -1.283137,-0.0141 -1.754629,-0.0421 -1.795687,-0.10673 -0.07335,-0.11548 -0.07237,-4.40208 0.0011,-4.5177 0.04496,-0.0708 1.426425,-0.0856 6.670109,-0.0712 l 6.6134,0.0181 v 2.31268 2.31269 l -1.778985,0.0356 -1.778986,0.0356 -0.03558,9.35746 -0.03558,9.35747 -3.008423,0.0186 c -2.368872,0.0146 -3.015625,-5.4e-4 -3.042291,-0.0712 z m 12.594968,0 c -0.01877,-0.0494 -0.0259,-5.32528 -0.01587,-11.72429 l 0.01826,-11.63457 2.988698,-0.0217 c 4.402278,-0.0319 6.675022,0.11407 7.699723,0.49459 0.78602,0.2919 1.569028,0.93465 2.027105,1.66401 0.662524,1.05488 0.957545,2.89371 0.833081,5.1925 -0.13686,2.52772 -0.705906,3.3655 -2.543783,3.74511 -0.240704,0.0497 -0.437645,0.11343 -0.437645,0.14159 0,0.0282 0.168115,0.10576 0.373589,0.17243 1.41754,0.45996 2.357474,1.46336 2.544937,2.71678 0.08324,0.55657 0.187969,8.86157 0.11539,9.15074 l -0.04834,0.19262 -2.791444,-0.0186 -2.791448,-0.0186 -0.04213,-4.66094 c -0.04158,-4.59975 -0.06306,-5.00635 -0.286601,-5.42403 -0.111027,-0.20746 -0.65091,-0.41728 -1.113871,-0.43289 l -0.407539,-0.0137 -0.03558,5.2658 -0.03558,5.2658 -3.008422,0.0186 c -2.368765,0.0146 -3.015682,-5.4e-4 -3.04255,-0.0712 z m 7.291671,-14.34363 c 0.134456,-0.0662 0.302441,-0.20036 0.373301,-0.2982 0.195362,-0.26976 0.291485,-1.2196 0.25824,-2.55179 -0.02547,-1.02037 -0.05079,-1.2312 -0.183154,-1.52487 -0.12561,-0.27866 -0.212779,-0.36695 -0.478227,-0.48437 -0.17944,-0.0794 -0.506883,-0.14974 -0.73216,-0.15734 l -0.407539,-0.0137 -0.01872,2.52579 c -0.0103,1.38918 -0.0016,2.57006 0.01904,2.62416 0.04982,0.12984 0.823017,0.0507 1.169229,-0.11965 z m 8.78726,14.33633 c -0.03771,-0.0983 3.009049,-23.22484 3.073433,-23.32902 0.05904,-0.0955 8.691289,-0.0732 8.750519,0.0227 0.0713,0.11542 3.51945,23.20567 3.48135,23.31287 -0.0246,0.0693 -0.70832,0.0889 -3.0937,0.0889 -1.68415,0 -3.06528,-0.008 -3.0692,-0.0178 -0.004,-0.01 -0.0794,-0.91804 -0.16771,-2.01836 -0.0883,-1.10031 -0.18309,-2.03694 -0.21057,-2.08141 -0.0739,-0.11959 -2.09842,-0.11193 -2.14179,0.008 -0.0177,0.0489 -0.10769,0.95643 -0.20003,2.01668 -0.0923,1.06026 -0.19084,1.96487 -0.21889,2.01026 -0.0801,0.12959 -6.153578,0.1169 -6.203412,-0.013 z m 8.607542,-8.28795 c 0.0196,-0.0318 -0.0409,-0.75077 -0.13461,-1.59777 -0.0937,-0.84701 -0.28506,-2.83038 -0.4253,-4.40749 -0.28791,-3.23771 -0.3083,-3.40737 -0.3914,-3.25678 -0.0515,0.0934 -0.46032,3.09379 -0.74622,5.4772 -0.21031,1.75319 -0.39415,3.71267 -0.35436,3.77705 0.0499,0.0807 2.00224,0.0881 2.05189,0.008 z m 9.25664,8.29539 c -0.0188,-0.0494 -0.0259,-5.32542 -0.0159,-11.72443 l 0.0183,-11.63457 2.49891,-0.0187 c 1.94574,-0.0145 2.51456,0.001 2.56959,0.0712 0.0389,0.0494 0.78325,2.29934 1.65416,4.99985 0.87091,2.7005 1.60973,4.95803 1.64182,5.01674 0.0519,0.0949 0.0628,0.0949 0.0988,0 0.0223,-0.0587 0.0484,-2.34826 0.0582,-5.0879 l 0.0177,-4.98116 2.4858,-0.0187 c 1.94136,-0.0146 2.4983,0.001 2.54286,0.0712 0.0656,0.10336 0.0815,23.11155 0.0161,23.28205 -0.0383,0.0998 -0.33998,0.11256 -2.66597,0.11256 -2.4254,0 -2.62773,-0.009 -2.68854,-0.12453 -0.0362,-0.0685 -0.71035,-2.30201 -1.49818,-4.96337 -0.78783,-2.66137 -1.47186,-4.9189 -1.52005,-5.01675 -0.0705,-0.14323 -0.0945,0.82045 -0.1232,4.94558 l -0.0356,5.12349 -2.51025,0.0187 c -1.97009,0.0147 -2.51761,-5.4e-4 -2.54443,-0.0712 z"
     style="fill:#030303;stroke-width:0.07115946" />
</svg>
